<svg width="300" height="300" viewBox="0 0 300 300" fill="none" xmlns="http://www.w3.org/2000/svg">
<circle cx="150" cy="150" r="150" fill="#333333"/>
<path d="M106.938 150V142.125L113.688 141.188L145.5 59H156.062L187.312 141.188L194 142.125V150H167.875V142.125L174.75 140.938L168.75 124.188H132.312L126.125 140.938L133 142.125V150H106.938ZM136.125 113.875H165L151.625 76.875L150.875 74.8125H150.5L149.75 76.875L136.125 113.875Z" fill="white"/>
<path d="M82.6562 237.492C79.2344 237.492 76.375 236.742 74.0781 235.242C71.7969 233.742 70.0781 231.688 68.9219 229.078C67.7812 226.469 67.2109 223.508 67.2109 220.195V219.703C67.2109 216.359 67.8125 213.391 69.0156 210.797C70.2188 208.188 71.9453 206.133 74.1953 204.633C76.4453 203.133 79.1328 202.383 82.2578 202.383C84.4609 202.383 86.4766 202.727 88.3047 203.414C90.1328 204.102 91.6484 204.977 92.8516 206.039V213.398H89.1719L88.6797 208.008C88.1797 207.617 87.6016 207.289 86.9453 207.023C86.3047 206.758 85.5859 206.555 84.7891 206.414C84.0078 206.273 83.1562 206.203 82.2344 206.203C80 206.203 78.1094 206.781 76.5625 207.938C75.0156 209.078 73.8438 210.656 73.0469 212.672C72.25 214.688 71.8516 217.016 71.8516 219.656V220.195C71.8516 223.055 72.2734 225.5 73.1172 227.531C73.9766 229.547 75.2188 231.086 76.8438 232.148C78.4844 233.211 80.4766 233.742 82.8203 233.742C83.9141 233.742 84.9844 233.609 86.0312 233.344C87.0781 233.078 87.9453 232.734 88.6328 232.312L89.1484 227.555H92.7578V234.961C91.4766 235.758 89.9453 236.383 88.1641 236.836C86.3828 237.273 84.5469 237.492 82.6562 237.492ZM111.391 237.492C109.188 237.492 107.211 237.07 105.461 236.227C103.711 235.383 102.219 234.195 100.984 232.664C99.7656 231.117 98.8281 229.289 98.1719 227.18C97.5312 225.07 97.2109 222.742 97.2109 220.195V219.703C97.2109 217.172 97.5312 214.852 98.1719 212.742C98.8281 210.617 99.7656 208.781 100.984 207.234C102.219 205.688 103.711 204.492 105.461 203.648C107.211 202.805 109.188 202.383 111.391 202.383C113.719 202.383 115.766 202.805 117.531 203.648C119.297 204.492 120.773 205.688 121.961 207.234C123.164 208.781 124.07 210.617 124.68 212.742C125.289 214.852 125.594 217.172 125.594 219.703V220.195C125.594 222.742 125.289 225.07 124.68 227.18C124.07 229.289 123.164 231.117 121.961 232.664C120.773 234.195 119.297 235.383 117.531 236.227C115.766 237.07 113.719 237.492 111.391 237.492ZM111.391 233.648C113.656 233.648 115.484 233.086 116.875 231.961C118.281 230.836 119.312 229.266 119.969 227.25C120.625 225.219 120.953 222.867 120.953 220.195V219.656C120.953 217 120.617 214.672 119.945 212.672C119.289 210.656 118.258 209.086 116.852 207.961C115.445 206.82 113.625 206.25 111.391 206.25C109.344 206.25 107.609 206.82 106.188 207.961C104.766 209.102 103.688 210.68 102.953 212.695C102.219 214.695 101.852 217.016 101.852 219.656V220.195C101.852 222.852 102.219 225.195 102.953 227.227C103.688 229.242 104.766 230.82 106.188 231.961C107.609 233.086 109.344 233.648 111.391 233.648ZM141.461 237.492C139.383 237.492 137.383 237.188 135.461 236.578C133.539 235.969 131.703 235.031 129.953 233.766V226.477H133.539L134.312 231.844C135.328 232.469 136.43 232.953 137.617 233.297C138.805 233.641 140.086 233.812 141.461 233.812C143.023 233.812 144.344 233.578 145.422 233.109C146.516 232.625 147.352 231.961 147.93 231.117C148.508 230.273 148.797 229.289 148.797 228.164C148.797 227.117 148.547 226.195 148.047 225.398C147.547 224.602 146.719 223.906 145.562 223.312C144.422 222.703 142.859 222.172 140.875 221.719C138.531 221.172 136.547 220.445 134.922 219.539C133.312 218.617 132.086 217.508 131.242 216.211C130.414 214.898 130 213.398 130 211.711C130 209.93 130.469 208.336 131.406 206.93C132.359 205.523 133.68 204.414 135.367 203.602C137.055 202.789 139.023 202.383 141.273 202.383C143.664 202.383 145.773 202.75 147.602 203.484C149.445 204.203 150.961 205.078 152.148 206.109V212.93H148.562L147.789 208.055C147.086 207.492 146.211 207.023 145.164 206.648C144.117 206.273 142.82 206.086 141.273 206.086C139.961 206.086 138.805 206.32 137.805 206.789C136.805 207.242 136.023 207.883 135.461 208.711C134.898 209.539 134.617 210.516 134.617 211.641C134.617 212.625 134.867 213.484 135.367 214.219C135.883 214.953 136.711 215.602 137.852 216.164C139.008 216.711 140.547 217.227 142.469 217.711C146.062 218.602 148.781 219.922 150.625 221.672C152.484 223.406 153.414 225.555 153.414 228.117C153.414 229.945 152.922 231.57 151.938 232.992C150.953 234.398 149.562 235.5 147.766 236.297C145.984 237.094 143.883 237.492 141.461 237.492ZM157.727 237V234.047L161.547 233.391V206.508L157.727 205.852V202.875H161.547H167.711L178.703 228.773H178.844L189.484 202.875H199.773V205.852L195.953 206.508V233.391L199.773 234.047V237H187.516V234.047L191.547 233.391V223.5V209.18L191.43 209.156L180.344 235.781H177.273L165.812 209.203L165.695 209.227L165.859 223.5V233.391L169.984 234.047V237H157.727ZM217.797 237.492C215.594 237.492 213.617 237.07 211.867 236.227C210.117 235.383 208.625 234.195 207.391 232.664C206.172 231.117 205.234 229.289 204.578 227.18C203.938 225.07 203.617 222.742 203.617 220.195V219.703C203.617 217.172 203.938 214.852 204.578 212.742C205.234 210.617 206.172 208.781 207.391 207.234C208.625 205.688 210.117 204.492 211.867 203.648C213.617 202.805 215.594 202.383 217.797 202.383C220.125 202.383 222.172 202.805 223.938 203.648C225.703 204.492 227.18 205.688 228.367 207.234C229.57 208.781 230.477 210.617 231.086 212.742C231.695 214.852 232 217.172 232 219.703V220.195C232 222.742 231.695 225.07 231.086 227.18C230.477 229.289 229.57 231.117 228.367 232.664C227.18 234.195 225.703 235.383 223.938 236.227C222.172 237.07 220.125 237.492 217.797 237.492ZM217.797 233.648C220.062 233.648 221.891 233.086 223.281 231.961C224.688 230.836 225.719 229.266 226.375 227.25C227.031 225.219 227.359 222.867 227.359 220.195V219.656C227.359 217 227.023 214.672 226.352 212.672C225.695 210.656 224.664 209.086 223.258 207.961C221.852 206.82 220.031 206.25 217.797 206.25C215.75 206.25 214.016 206.82 212.594 207.961C211.172 209.102 210.094 210.68 209.359 212.695C208.625 214.695 208.258 217.016 208.258 219.656V220.195C208.258 222.852 208.625 225.195 209.359 227.227C210.094 229.242 211.172 230.82 212.594 231.961C214.016 233.086 215.75 233.648 217.797 233.648Z" fill="#7E7E7E"/>
</svg>
