<svg width="319" height="313" viewBox="0 0 319 313" fill="none" xmlns="http://www.w3.org/2000/svg">
<path d="M64.0837 82.9152C95.7615 37.6747 158.116 26.6799 203.357 58.3576V58.3576C248.597 90.0354 259.592 152.39 227.914 197.63V197.63L64.0837 82.9152V82.9152Z" fill="#84837D"/>
<path d="M253.897 230.139C222.219 275.38 159.864 286.375 114.624 254.697V254.697C69.3834 223.019 58.3886 160.664 90.0664 115.424V115.424L253.897 230.139V230.139Z" fill="#84837D"/>
<path d="M125.293 197L125.293 187.412L161.301 147.994C165.527 143.378 169.007 139.365 171.741 135.956C174.476 132.511 176.5 129.28 177.814 126.261C179.163 123.207 179.838 120.011 179.838 116.673C179.838 112.838 178.915 109.518 177.068 106.712C175.257 103.907 172.771 101.741 169.611 100.214C166.45 98.6868 162.899 97.9233 158.957 97.9233C154.767 97.9233 151.109 98.7933 147.984 100.533C144.895 102.238 142.498 104.635 140.793 107.724C139.124 110.814 138.29 114.436 138.29 118.591L125.719 118.591C125.719 112.199 127.192 106.588 130.14 101.759C133.087 96.929 137.1 93.1648 142.178 90.4659C147.292 87.767 153.027 86.4176 159.384 86.4176C165.776 86.4176 171.44 87.767 176.376 90.4659C181.312 93.1648 185.183 96.8047 187.988 101.386C190.793 105.967 192.196 111.062 192.196 116.673C192.196 120.686 191.468 124.61 190.012 128.445C188.592 132.245 186.106 136.489 182.555 141.176C179.039 145.828 174.156 151.51 167.906 158.222L143.403 184.429L143.403 185.281L194.114 185.281L194.114 197L125.293 197Z" fill="white"/>
</svg>
