<svg width="322" height="317" viewBox="0 0 322 317" fill="none" xmlns="http://www.w3.org/2000/svg">
<path d="M64.5012 87.763C96.179 42.5225 158.534 31.5277 203.774 63.2055V63.2055C249.015 94.8832 260.009 157.238 228.332 202.478V202.478L64.5012 87.763V87.763Z" fill="#84837D"/>
<path d="M254.314 234.987C222.637 280.228 160.282 291.222 115.041 259.545V259.545C69.8009 227.867 58.8061 165.512 90.4839 120.272V120.272L254.314 234.987V234.987Z" fill="#84837D"/>
<path d="M116.736 174.628L116.736 163.761L164.676 87.9091L172.56 87.9091L172.56 104.741L167.233 104.741L131.011 162.057L131.011 162.909L195.571 162.909L195.571 174.628L116.736 174.628ZM168.085 197L168.085 171.325L168.085 166.265L168.085 87.9091L180.656 87.9091L180.656 197L168.085 197Z" fill="white"/>
</svg>
