<svg width="323" height="318" viewBox="0 0 323 318" fill="none" xmlns="http://www.w3.org/2000/svg">
<path d="M64.7924 88.3391C96.4701 43.0986 158.825 32.1038 204.065 63.7816V63.7816C249.306 95.4593 260.301 157.814 228.623 203.054V203.054L64.7924 88.3391V88.3391Z" fill="#84837D"/>
<path d="M254.606 235.563C222.928 280.804 160.573 291.798 115.333 260.121V260.121C70.0922 228.443 59.0974 166.088 90.7752 120.848V120.848L254.606 235.563V235.563Z" fill="#84837D"/>
<path d="M159.153 199.491C152.122 199.491 145.854 198.284 140.35 195.869C134.881 193.455 130.531 190.099 127.3 185.802C124.104 181.469 122.364 176.445 122.08 170.727L135.503 170.727C135.787 174.243 136.994 177.279 139.125 179.836C141.256 182.357 144.043 184.31 147.488 185.695C150.933 187.08 154.75 187.773 158.94 187.773C163.628 187.773 167.783 186.956 171.405 185.322C175.027 183.689 177.868 181.416 179.928 178.504C181.987 175.592 183.017 172.219 183.017 168.384C183.017 164.371 182.023 160.837 180.034 157.783C178.045 154.694 175.134 152.279 171.298 150.539C167.463 148.799 162.776 147.929 157.236 147.929L148.5 147.929L148.5 136.21L157.236 136.21C161.568 136.21 165.368 135.429 168.635 133.866C171.938 132.304 174.512 130.102 176.359 127.261C178.241 124.42 179.182 121.082 179.182 117.247C179.182 113.554 178.365 110.34 176.732 107.606C175.098 104.871 172.79 102.741 169.807 101.214C166.859 99.6868 163.379 98.9233 159.366 98.9233C155.602 98.9233 152.051 99.6158 148.713 101.001C145.411 102.35 142.712 104.321 140.616 106.913C138.521 109.47 137.385 112.56 137.207 116.182L124.423 116.182C124.636 110.464 126.359 105.457 129.59 101.161C132.822 96.8281 137.048 93.4545 142.268 91.0398C147.523 88.625 153.294 87.4176 159.58 87.4176C166.327 87.4176 172.115 88.7848 176.945 91.5192C181.774 94.218 185.485 97.7869 188.077 102.226C190.67 106.665 191.966 111.459 191.966 116.608C191.966 122.751 190.35 127.989 187.119 132.322C183.923 136.654 179.572 139.655 174.068 141.324L174.068 142.176C180.957 143.312 186.337 146.242 190.208 150.965C194.079 155.653 196.014 161.459 196.014 168.384C196.014 174.314 194.398 179.641 191.167 184.364C187.971 189.051 183.603 192.744 178.063 195.443C172.523 198.142 166.22 199.491 159.153 199.491Z" fill="white"/>
</svg>
